%TF.GenerationSoftware,KiCad,Pcbnew,9.0.0*%
%TF.CreationDate,2025-04-23T13:11:14+02:00*%
%TF.ProjectId,DIMECRES_C_retrovisors,44494d45-4352-4455-935f-435f72657472,rev?*%
%TF.SameCoordinates,Original*%
%TF.FileFunction,Soldermask,Bot*%
%TF.FilePolarity,Negative*%
%FSLAX46Y46*%
G04 Gerber Fmt 4.6, Leading zero omitted, Abs format (unit mm)*
G04 Created by KiCad (PCBNEW 9.0.0) date 2025-04-23 13:11:14*
%MOMM*%
%LPD*%
G01*
G04 APERTURE LIST*
G04 Aperture macros list*
%AMRoundRect*
0 Rectangle with rounded corners*
0 $1 Rounding radius*
0 $2 $3 $4 $5 $6 $7 $8 $9 X,Y pos of 4 corners*
0 Add a 4 corners polygon primitive as box body*
4,1,4,$2,$3,$4,$5,$6,$7,$8,$9,$2,$3,0*
0 Add four circle primitives for the rounded corners*
1,1,$1+$1,$2,$3*
1,1,$1+$1,$4,$5*
1,1,$1+$1,$6,$7*
1,1,$1+$1,$8,$9*
0 Add four rect primitives between the rounded corners*
20,1,$1+$1,$2,$3,$4,$5,0*
20,1,$1+$1,$4,$5,$6,$7,0*
20,1,$1+$1,$6,$7,$8,$9,0*
20,1,$1+$1,$8,$9,$2,$3,0*%
G04 Aperture macros list end*
%ADD10C,3.200000*%
%ADD11R,3.200000X3.200000*%
%ADD12O,3.200000X3.200000*%
%ADD13R,1.600000X1.600000*%
%ADD14C,1.600000*%
%ADD15R,2.200000X2.200000*%
%ADD16O,2.200000X2.200000*%
%ADD17R,1.700000X1.700000*%
%ADD18O,1.700000X1.700000*%
%ADD19RoundRect,0.250001X0.799999X-0.799999X0.799999X0.799999X-0.799999X0.799999X-0.799999X-0.799999X0*%
%ADD20C,2.100000*%
%ADD21C,4.000000*%
%ADD22RoundRect,0.250000X0.550000X0.550000X-0.550000X0.550000X-0.550000X-0.550000X0.550000X-0.550000X0*%
%ADD23RoundRect,0.250001X0.799999X0.799999X-0.799999X0.799999X-0.799999X-0.799999X0.799999X-0.799999X0*%
%ADD24R,1.524000X1.524000*%
%ADD25C,1.524000*%
%ADD26R,1.800000X1.800000*%
%ADD27C,1.800000*%
%ADD28RoundRect,0.250000X0.650000X-0.412500X0.650000X0.412500X-0.650000X0.412500X-0.650000X-0.412500X0*%
%ADD29RoundRect,0.250000X-0.412500X-0.650000X0.412500X-0.650000X0.412500X0.650000X-0.412500X0.650000X0*%
G04 APERTURE END LIST*
D10*
%TO.C,REF\u002A\u002A*%
X90075000Y-137300000D03*
%TD*%
%TO.C,REF\u002A\u002A*%
X90025000Y-52600000D03*
%TD*%
D11*
%TO.C,D8*%
X189941200Y-80137000D03*
D12*
X174701200Y-80137000D03*
%TD*%
D11*
%TO.C,D7*%
X189856200Y-74382400D03*
D12*
X174616200Y-74382400D03*
%TD*%
D13*
%TO.C,C1*%
X170940000Y-138062380D03*
D14*
X170940000Y-135562380D03*
%TD*%
D15*
%TO.C,D5*%
X134975600Y-53949600D03*
D16*
X134975600Y-64109600D03*
%TD*%
D11*
%TO.C,D10*%
X145338800Y-74168000D03*
D12*
X160578800Y-74168000D03*
%TD*%
D17*
%TO.C,J3*%
X129320800Y-123967000D03*
D18*
X126780800Y-123967000D03*
X124240800Y-123967000D03*
X121700800Y-123967000D03*
X119160800Y-123967000D03*
%TD*%
D11*
%TO.C,D11*%
X174616200Y-85914000D03*
D12*
X189856200Y-85914000D03*
%TD*%
D10*
%TO.C,REF\u002A\u002A*%
X191180000Y-137400000D03*
%TD*%
D15*
%TO.C,D3*%
X185150000Y-117600000D03*
D16*
X174990000Y-117600000D03*
%TD*%
D15*
%TO.C,D6*%
X147248400Y-69379000D03*
D16*
X157408400Y-69379000D03*
%TD*%
D19*
%TO.C,J7*%
X190310000Y-130530000D03*
D20*
X190310000Y-125450000D03*
%TD*%
D21*
%TO.C,J5*%
X129710000Y-56760000D03*
X104710000Y-56760000D03*
D13*
X111670000Y-58180000D03*
D14*
X114440000Y-58180000D03*
X117210000Y-58180000D03*
X119980000Y-58180000D03*
X122750000Y-58180000D03*
X113055000Y-55340000D03*
X115825000Y-55340000D03*
X118595000Y-55340000D03*
X121365000Y-55340000D03*
%TD*%
D11*
%TO.C,D9*%
X145330000Y-79995800D03*
D12*
X160570000Y-79995800D03*
%TD*%
D22*
%TO.C,U7*%
X130088800Y-115494800D03*
D14*
X130088800Y-112954800D03*
X130088800Y-110414800D03*
X130088800Y-107874800D03*
X130088800Y-105334800D03*
X130088800Y-102794800D03*
X130088800Y-100254800D03*
X130088800Y-97714800D03*
X130088800Y-95174800D03*
X130088800Y-92634800D03*
X130088800Y-90094800D03*
X130088800Y-87554800D03*
X130088800Y-85014800D03*
X130088800Y-82474800D03*
X130088800Y-79934800D03*
X130088800Y-77394800D03*
X130088800Y-74854800D03*
X130088800Y-72314800D03*
X130088800Y-69774800D03*
X130088800Y-67234800D03*
X114848800Y-67234800D03*
X114848800Y-69774800D03*
X114848800Y-72314800D03*
X114848800Y-74854800D03*
X114848800Y-77394800D03*
X114848800Y-79934800D03*
X114848800Y-82474800D03*
X114848800Y-85014800D03*
X114848800Y-87554800D03*
X114848800Y-90094800D03*
X114848800Y-92634800D03*
X114848800Y-95174800D03*
X114848800Y-97714800D03*
X114848800Y-100254800D03*
X114848800Y-102794800D03*
X114848800Y-105334800D03*
X114848800Y-107874800D03*
X114848800Y-110414800D03*
X114848800Y-112954800D03*
X114848800Y-115494800D03*
%TD*%
D23*
%TO.C,J9*%
X182925000Y-53825000D03*
D20*
X177845000Y-53825000D03*
%TD*%
D23*
%TO.C,J8*%
X161425000Y-53850000D03*
D20*
X156345000Y-53850000D03*
%TD*%
D13*
%TO.C,C2*%
X155390000Y-121840000D03*
D14*
X155390000Y-124340000D03*
%TD*%
D11*
%TO.C,D14*%
X160578800Y-85837800D03*
D12*
X145338800Y-85837800D03*
%TD*%
D11*
%TO.C,D13*%
X160570000Y-91679800D03*
D12*
X145330000Y-91679800D03*
%TD*%
D21*
%TO.C,J2*%
X94190000Y-104160000D03*
X94190000Y-129160000D03*
D13*
X95610000Y-122200000D03*
D14*
X95610000Y-119430000D03*
X95610000Y-116660000D03*
X95610000Y-113890000D03*
X95610000Y-111120000D03*
X92770000Y-120815000D03*
X92770000Y-118045000D03*
X92770000Y-115275000D03*
X92770000Y-112505000D03*
%TD*%
D17*
%TO.C,JP1*%
X129320800Y-119667000D03*
D18*
X126780800Y-119667000D03*
X124240800Y-119667000D03*
%TD*%
D24*
%TO.C,SW9*%
X138665000Y-61000000D03*
D25*
X138665000Y-66080000D03*
X141205000Y-61000000D03*
X141205000Y-66080000D03*
X148825000Y-61000000D03*
X148825000Y-66080000D03*
%TD*%
D10*
%TO.C,REF\u002A\u002A*%
X189425000Y-52500000D03*
%TD*%
D11*
%TO.C,D12*%
X174650400Y-91719400D03*
D12*
X189890400Y-91719400D03*
%TD*%
D19*
%TO.C,J10*%
X189860000Y-108720000D03*
D20*
X189860000Y-103640000D03*
%TD*%
D13*
%TO.C,C6*%
X167690800Y-79516600D03*
D14*
X167690800Y-82016600D03*
%TD*%
D26*
%TO.C,U4*%
X175800000Y-95810000D03*
D27*
X174530000Y-100890000D03*
X173260000Y-95810000D03*
X171990000Y-100890000D03*
X170720000Y-95810000D03*
X169450000Y-100890000D03*
X168180000Y-95810000D03*
X166910000Y-100890000D03*
X165640000Y-95810000D03*
X164370000Y-100890000D03*
X163100000Y-95810000D03*
X161830000Y-100890000D03*
X160560000Y-95810000D03*
X159290000Y-100890000D03*
X158020000Y-95810000D03*
%TD*%
D23*
%TO.C,J6*%
X150600000Y-53850000D03*
D20*
X145520000Y-53850000D03*
%TD*%
D23*
%TO.C,J4*%
X172225000Y-53825000D03*
D20*
X167145000Y-53825000D03*
%TD*%
D24*
%TO.C,SW8*%
X183014700Y-122091400D03*
D25*
X177934700Y-122091400D03*
X183014700Y-124631400D03*
X177934700Y-124631400D03*
X183014700Y-132251400D03*
X177934700Y-132251400D03*
%TD*%
D28*
%TO.C,C14*%
X117075000Y-95175000D03*
X117075000Y-92050000D03*
%TD*%
D29*
%TO.C,C10*%
X106435000Y-108425000D03*
X109560000Y-108425000D03*
%TD*%
D28*
%TO.C,C9*%
X127900000Y-90475000D03*
X127900000Y-87350000D03*
%TD*%
M02*
