%TF.GenerationSoftware,KiCad,Pcbnew,9.0.0*%
%TF.CreationDate,2025-04-22T17:20:22+02:00*%
%TF.ProjectId,DIMECRES_C_retrovisors,44494d45-4352-4455-935f-435f72657472,rev?*%
%TF.SameCoordinates,Original*%
%TF.FileFunction,Legend,Bot*%
%TF.FilePolarity,Positive*%
%FSLAX46Y46*%
G04 Gerber Fmt 4.6, Leading zero omitted, Abs format (unit mm)*
G04 Created by KiCad (PCBNEW 9.0.0) date 2025-04-22 17:20:22*
%MOMM*%
%LPD*%
G01*
G04 APERTURE LIST*
%ADD10C,0.150000*%
%ADD11C,0.120000*%
G04 APERTURE END LIST*
D10*
X119284580Y-92969642D02*
X119332200Y-92922023D01*
X119332200Y-92922023D02*
X119379819Y-92779166D01*
X119379819Y-92779166D02*
X119379819Y-92683928D01*
X119379819Y-92683928D02*
X119332200Y-92541071D01*
X119332200Y-92541071D02*
X119236961Y-92445833D01*
X119236961Y-92445833D02*
X119141723Y-92398214D01*
X119141723Y-92398214D02*
X118951247Y-92350595D01*
X118951247Y-92350595D02*
X118808390Y-92350595D01*
X118808390Y-92350595D02*
X118617914Y-92398214D01*
X118617914Y-92398214D02*
X118522676Y-92445833D01*
X118522676Y-92445833D02*
X118427438Y-92541071D01*
X118427438Y-92541071D02*
X118379819Y-92683928D01*
X118379819Y-92683928D02*
X118379819Y-92779166D01*
X118379819Y-92779166D02*
X118427438Y-92922023D01*
X118427438Y-92922023D02*
X118475057Y-92969642D01*
X119379819Y-93922023D02*
X119379819Y-93350595D01*
X119379819Y-93636309D02*
X118379819Y-93636309D01*
X118379819Y-93636309D02*
X118522676Y-93541071D01*
X118522676Y-93541071D02*
X118617914Y-93445833D01*
X118617914Y-93445833D02*
X118665533Y-93350595D01*
X118713152Y-94779166D02*
X119379819Y-94779166D01*
X118332200Y-94541071D02*
X119046485Y-94302976D01*
X119046485Y-94302976D02*
X119046485Y-94922023D01*
X126259580Y-88745833D02*
X126307200Y-88698214D01*
X126307200Y-88698214D02*
X126354819Y-88555357D01*
X126354819Y-88555357D02*
X126354819Y-88460119D01*
X126354819Y-88460119D02*
X126307200Y-88317262D01*
X126307200Y-88317262D02*
X126211961Y-88222024D01*
X126211961Y-88222024D02*
X126116723Y-88174405D01*
X126116723Y-88174405D02*
X125926247Y-88126786D01*
X125926247Y-88126786D02*
X125783390Y-88126786D01*
X125783390Y-88126786D02*
X125592914Y-88174405D01*
X125592914Y-88174405D02*
X125497676Y-88222024D01*
X125497676Y-88222024D02*
X125402438Y-88317262D01*
X125402438Y-88317262D02*
X125354819Y-88460119D01*
X125354819Y-88460119D02*
X125354819Y-88555357D01*
X125354819Y-88555357D02*
X125402438Y-88698214D01*
X125402438Y-88698214D02*
X125450057Y-88745833D01*
X126354819Y-89222024D02*
X126354819Y-89412500D01*
X126354819Y-89412500D02*
X126307200Y-89507738D01*
X126307200Y-89507738D02*
X126259580Y-89555357D01*
X126259580Y-89555357D02*
X126116723Y-89650595D01*
X126116723Y-89650595D02*
X125926247Y-89698214D01*
X125926247Y-89698214D02*
X125545295Y-89698214D01*
X125545295Y-89698214D02*
X125450057Y-89650595D01*
X125450057Y-89650595D02*
X125402438Y-89602976D01*
X125402438Y-89602976D02*
X125354819Y-89507738D01*
X125354819Y-89507738D02*
X125354819Y-89317262D01*
X125354819Y-89317262D02*
X125402438Y-89222024D01*
X125402438Y-89222024D02*
X125450057Y-89174405D01*
X125450057Y-89174405D02*
X125545295Y-89126786D01*
X125545295Y-89126786D02*
X125783390Y-89126786D01*
X125783390Y-89126786D02*
X125878628Y-89174405D01*
X125878628Y-89174405D02*
X125926247Y-89222024D01*
X125926247Y-89222024D02*
X125973866Y-89317262D01*
X125973866Y-89317262D02*
X125973866Y-89507738D01*
X125973866Y-89507738D02*
X125926247Y-89602976D01*
X125926247Y-89602976D02*
X125878628Y-89650595D01*
X125878628Y-89650595D02*
X125783390Y-89698214D01*
D11*
%TO.C,C14*%
X116165000Y-94323752D02*
X116165000Y-92901248D01*
X117985000Y-94323752D02*
X117985000Y-92901248D01*
%TO.C,C10*%
X107286248Y-107515000D02*
X108708752Y-107515000D01*
X107286248Y-109335000D02*
X108708752Y-109335000D01*
%TO.C,C9*%
X126990000Y-89623752D02*
X126990000Y-88201248D01*
X128810000Y-89623752D02*
X128810000Y-88201248D01*
%TD*%
M02*
