%TF.GenerationSoftware,KiCad,Pcbnew,9.0.0*%
%TF.CreationDate,2025-04-22T17:20:22+02:00*%
%TF.ProjectId,DIMECRES_C_retrovisors,44494d45-4352-4455-935f-435f72657472,rev?*%
%TF.SameCoordinates,Original*%
%TF.FileFunction,Soldermask,Top*%
%TF.FilePolarity,Negative*%
%FSLAX46Y46*%
G04 Gerber Fmt 4.6, Leading zero omitted, Abs format (unit mm)*
G04 Created by KiCad (PCBNEW 9.0.0) date 2025-04-22 17:20:22*
%MOMM*%
%LPD*%
G01*
G04 APERTURE LIST*
G04 Aperture macros list*
%AMRoundRect*
0 Rectangle with rounded corners*
0 $1 Rounding radius*
0 $2 $3 $4 $5 $6 $7 $8 $9 X,Y pos of 4 corners*
0 Add a 4 corners polygon primitive as box body*
4,1,4,$2,$3,$4,$5,$6,$7,$8,$9,$2,$3,0*
0 Add four circle primitives for the rounded corners*
1,1,$1+$1,$2,$3*
1,1,$1+$1,$4,$5*
1,1,$1+$1,$6,$7*
1,1,$1+$1,$8,$9*
0 Add four rect primitives between the rounded corners*
20,1,$1+$1,$2,$3,$4,$5,0*
20,1,$1+$1,$4,$5,$6,$7,0*
20,1,$1+$1,$6,$7,$8,$9,0*
20,1,$1+$1,$8,$9,$2,$3,0*%
%AMOutline4P*
0 Free polygon, 4 corners , with rotation*
0 The origin of the aperture is its center*
0 number of corners: always 4*
0 $1 to $8 corner X, Y*
0 $9 Rotation angle, in degrees counterclockwise*
0 create outline with 4 corners*
4,1,4,$1,$2,$3,$4,$5,$6,$7,$8,$1,$2,$9*%
%AMFreePoly0*
4,1,18,-0.200000,0.100000,-0.198097,0.109567,-0.192678,0.117678,-0.184567,0.123097,-0.175000,0.125000,0.175000,0.125000,0.184567,0.123097,0.192678,0.117678,0.198097,0.109567,0.200000,0.100000,0.200000,-0.100000,0.198097,-0.109567,0.192678,-0.117678,0.184567,-0.123097,0.175000,-0.125000,-0.075000,-0.125000,-0.200000,0.000000,-0.200000,0.100000,-0.200000,0.100000,$1*%
%AMFreePoly1*
4,1,18,-0.200000,0.000000,-0.075000,0.125000,0.175000,0.125000,0.184567,0.123097,0.192678,0.117678,0.198097,0.109567,0.200000,0.100000,0.200000,-0.100000,0.198097,-0.109567,0.192678,-0.117678,0.184567,-0.123097,0.175000,-0.125000,-0.175000,-0.125000,-0.184567,-0.123097,-0.192678,-0.117678,-0.198097,-0.109567,-0.200000,-0.100000,-0.200000,0.000000,-0.200000,0.000000,$1*%
G04 Aperture macros list end*
%ADD10RoundRect,0.250000X0.475000X-0.337500X0.475000X0.337500X-0.475000X0.337500X-0.475000X-0.337500X0*%
%ADD11RoundRect,0.250000X0.525000X0.250000X-0.525000X0.250000X-0.525000X-0.250000X0.525000X-0.250000X0*%
%ADD12RoundRect,0.250000X0.400000X0.625000X-0.400000X0.625000X-0.400000X-0.625000X0.400000X-0.625000X0*%
%ADD13C,3.200000*%
%ADD14RoundRect,0.250000X0.350000X0.450000X-0.350000X0.450000X-0.350000X-0.450000X0.350000X-0.450000X0*%
%ADD15RoundRect,0.250000X-0.625000X0.400000X-0.625000X-0.400000X0.625000X-0.400000X0.625000X0.400000X0*%
%ADD16RoundRect,0.250000X0.625000X-0.400000X0.625000X0.400000X-0.625000X0.400000X-0.625000X-0.400000X0*%
%ADD17R,3.200000X3.200000*%
%ADD18O,3.200000X3.200000*%
%ADD19RoundRect,0.100000X0.100000X-0.155000X0.100000X0.155000X-0.100000X0.155000X-0.100000X-0.155000X0*%
%ADD20RoundRect,0.250000X-0.450000X0.350000X-0.450000X-0.350000X0.450000X-0.350000X0.450000X0.350000X0*%
%ADD21RoundRect,0.250000X-0.412500X-0.650000X0.412500X-0.650000X0.412500X0.650000X-0.412500X0.650000X0*%
%ADD22RoundRect,0.250000X-0.650000X0.412500X-0.650000X-0.412500X0.650000X-0.412500X0.650000X0.412500X0*%
%ADD23RoundRect,0.250000X-0.350000X-0.450000X0.350000X-0.450000X0.350000X0.450000X-0.350000X0.450000X0*%
%ADD24RoundRect,0.250000X-0.337500X-0.475000X0.337500X-0.475000X0.337500X0.475000X-0.337500X0.475000X0*%
%ADD25RoundRect,0.250000X0.650000X-0.412500X0.650000X0.412500X-0.650000X0.412500X-0.650000X-0.412500X0*%
%ADD26RoundRect,0.250000X0.412500X0.650000X-0.412500X0.650000X-0.412500X-0.650000X0.412500X-0.650000X0*%
%ADD27R,1.600000X1.600000*%
%ADD28C,1.600000*%
%ADD29RoundRect,0.250000X0.300000X-2.050000X0.300000X2.050000X-0.300000X2.050000X-0.300000X-2.050000X0*%
%ADD30RoundRect,0.250002X5.149998X-4.449998X5.149998X4.449998X-5.149998X4.449998X-5.149998X-4.449998X0*%
%ADD31R,2.200000X2.200000*%
%ADD32O,2.200000X2.200000*%
%ADD33R,1.700000X1.700000*%
%ADD34O,1.700000X1.700000*%
%ADD35RoundRect,0.250000X0.450000X-0.350000X0.450000X0.350000X-0.450000X0.350000X-0.450000X-0.350000X0*%
%ADD36RoundRect,0.150000X0.825000X0.150000X-0.825000X0.150000X-0.825000X-0.150000X0.825000X-0.150000X0*%
%ADD37RoundRect,0.127000X1.143000X-1.208000X1.143000X1.208000X-1.143000X1.208000X-1.143000X-1.208000X0*%
%ADD38RoundRect,0.076200X0.558800X-0.304800X0.558800X0.304800X-0.558800X0.304800X-0.558800X-0.304800X0*%
%ADD39RoundRect,0.250000X0.250000X-0.525000X0.250000X0.525000X-0.250000X0.525000X-0.250000X-0.525000X0*%
%ADD40RoundRect,0.150000X-0.512500X-0.150000X0.512500X-0.150000X0.512500X0.150000X-0.512500X0.150000X0*%
%ADD41RoundRect,0.250000X2.050000X0.300000X-2.050000X0.300000X-2.050000X-0.300000X2.050000X-0.300000X0*%
%ADD42RoundRect,0.250002X4.449998X5.149998X-4.449998X5.149998X-4.449998X-5.149998X4.449998X-5.149998X0*%
%ADD43RoundRect,0.150000X-0.150000X0.825000X-0.150000X-0.825000X0.150000X-0.825000X0.150000X0.825000X0*%
%ADD44RoundRect,0.250001X0.799999X-0.799999X0.799999X0.799999X-0.799999X0.799999X-0.799999X-0.799999X0*%
%ADD45C,2.100000*%
%ADD46RoundRect,0.250000X0.700000X-0.362500X0.700000X0.362500X-0.700000X0.362500X-0.700000X-0.362500X0*%
%ADD47RoundRect,0.250000X-0.400000X-0.625000X0.400000X-0.625000X0.400000X0.625000X-0.400000X0.625000X0*%
%ADD48R,0.550000X0.500000*%
%ADD49RoundRect,0.250000X0.550000X0.550000X-0.550000X0.550000X-0.550000X-0.550000X0.550000X-0.550000X0*%
%ADD50RoundRect,0.250000X0.337500X0.475000X-0.337500X0.475000X-0.337500X-0.475000X0.337500X-0.475000X0*%
%ADD51RoundRect,0.250001X0.799999X0.799999X-0.799999X0.799999X-0.799999X-0.799999X0.799999X-0.799999X0*%
%ADD52RoundRect,0.250000X-0.325000X-0.450000X0.325000X-0.450000X0.325000X0.450000X-0.325000X0.450000X0*%
%ADD53R,2.000000X5.500000*%
%ADD54R,1.524000X1.524000*%
%ADD55C,1.524000*%
%ADD56RoundRect,0.100000X0.155000X0.100000X-0.155000X0.100000X-0.155000X-0.100000X0.155000X-0.100000X0*%
%ADD57RoundRect,0.250001X0.462499X0.624999X-0.462499X0.624999X-0.462499X-0.624999X0.462499X-0.624999X0*%
%ADD58FreePoly0,270.000000*%
%ADD59Outline4P,-0.108250X0.000000X0.108250X-0.125000X0.108250X0.125000X-0.108250X0.000000X180.000000*%
%ADD60FreePoly1,90.000000*%
%ADD61FreePoly0,90.000000*%
%ADD62Outline4P,-0.125000X-0.108250X0.125000X-0.108250X0.000000X0.108250X0.000000X0.108250X90.000000*%
%ADD63FreePoly1,270.000000*%
%ADD64RoundRect,0.250000X-0.475000X0.337500X-0.475000X-0.337500X0.475000X-0.337500X0.475000X0.337500X0*%
%ADD65R,1.800000X1.800000*%
%ADD66C,1.800000*%
%ADD67R,1.000000X2.200000*%
G04 APERTURE END LIST*
D10*
%TO.C,C13*%
X138252600Y-82513000D03*
X138252600Y-80438000D03*
%TD*%
D11*
%TO.C,SW5*%
X106175000Y-91175000D03*
X100925000Y-91175000D03*
X106175000Y-87975000D03*
X100925000Y-87975000D03*
%TD*%
D12*
%TO.C,R5*%
X153839600Y-95794600D03*
X150739600Y-95794600D03*
%TD*%
D11*
%TO.C,SW7*%
X111500000Y-85725000D03*
X106250000Y-85725000D03*
X111500000Y-82525000D03*
X106250000Y-82525000D03*
%TD*%
D13*
%TO.C,REF\u002A\u002A*%
X90075000Y-137300000D03*
%TD*%
D14*
%TO.C,R20*%
X112383600Y-122671600D03*
X110383600Y-122671600D03*
%TD*%
D15*
%TO.C,R16*%
X158028750Y-107246250D03*
X158028750Y-110346250D03*
%TD*%
D16*
%TO.C,R19*%
X163371250Y-110013750D03*
X163371250Y-106913750D03*
%TD*%
D13*
%TO.C,REF\u002A\u002A*%
X90025000Y-52600000D03*
%TD*%
D17*
%TO.C,D8*%
X189941200Y-80137000D03*
D18*
X174701200Y-80137000D03*
%TD*%
D19*
%TO.C,Q3*%
X175614000Y-114056000D03*
X174614000Y-114056000D03*
X175114000Y-115346000D03*
%TD*%
D20*
%TO.C,R25*%
X111024330Y-66409377D03*
X111024330Y-68409377D03*
%TD*%
D21*
%TO.C,C16*%
X185817500Y-121375000D03*
X188942500Y-121375000D03*
%TD*%
D17*
%TO.C,D7*%
X189856200Y-74382400D03*
D18*
X174616200Y-74382400D03*
%TD*%
D22*
%TO.C,C4*%
X146304000Y-131495000D03*
X146304000Y-134620000D03*
%TD*%
D23*
%TO.C,R23*%
X134550000Y-68975000D03*
X136550000Y-68975000D03*
%TD*%
D24*
%TO.C,C23*%
X107052500Y-72060000D03*
X109127500Y-72060000D03*
%TD*%
D25*
%TO.C,C15*%
X138150600Y-58382300D03*
X138150600Y-55257300D03*
%TD*%
D23*
%TO.C,R21*%
X96355000Y-56475000D03*
X98355000Y-56475000D03*
%TD*%
D26*
%TO.C,C11*%
X160324800Y-116484400D03*
X157199800Y-116484400D03*
%TD*%
D27*
%TO.C,C1*%
X170940000Y-138062380D03*
D28*
X170940000Y-135562380D03*
%TD*%
D29*
%TO.C,U10*%
X140976000Y-127578000D03*
X143516000Y-127578000D03*
D30*
X143516000Y-118428000D03*
D29*
X146056000Y-127578000D03*
%TD*%
D31*
%TO.C,D5*%
X134975600Y-53949600D03*
D32*
X134975600Y-64109600D03*
%TD*%
D17*
%TO.C,D10*%
X145338800Y-74168000D03*
D18*
X160578800Y-74168000D03*
%TD*%
D33*
%TO.C,J3*%
X129320800Y-123967000D03*
D34*
X126780800Y-123967000D03*
X124240800Y-123967000D03*
X121700800Y-123967000D03*
X119160800Y-123967000D03*
%TD*%
D11*
%TO.C,SW6*%
X100800000Y-85700000D03*
X95550000Y-85700000D03*
X100800000Y-82500000D03*
X95550000Y-82500000D03*
%TD*%
D35*
%TO.C,R26*%
X111024330Y-72169377D03*
X111024330Y-70169377D03*
%TD*%
D11*
%TO.C,SW2*%
X111725000Y-97800000D03*
X106475000Y-97800000D03*
X111725000Y-94600000D03*
X106475000Y-94600000D03*
%TD*%
D26*
%TO.C,C17*%
X158000800Y-61491400D03*
X154875800Y-61491400D03*
%TD*%
D17*
%TO.C,D11*%
X174616200Y-85914000D03*
D18*
X189856200Y-85914000D03*
%TD*%
D16*
%TO.C,R13*%
X168396250Y-110063750D03*
X168396250Y-106963750D03*
%TD*%
D13*
%TO.C,REF\u002A\u002A*%
X191180000Y-137400000D03*
%TD*%
D36*
%TO.C,U6*%
X168346250Y-115693750D03*
X168346250Y-114423750D03*
X168346250Y-113153750D03*
X168346250Y-111883750D03*
X163396250Y-111883750D03*
X163396250Y-113153750D03*
X163396250Y-114423750D03*
X163396250Y-115693750D03*
%TD*%
D37*
%TO.C,D1*%
X171070000Y-131260000D03*
D38*
X171070000Y-128909000D03*
%TD*%
D39*
%TO.C,SW10*%
X132729700Y-126865200D03*
X132729700Y-121615200D03*
X135929700Y-126865200D03*
X135929700Y-121615200D03*
%TD*%
D40*
%TO.C,U2*%
X93142330Y-68157377D03*
X93142330Y-69107377D03*
X93142330Y-70057377D03*
X95417330Y-70057377D03*
X95417330Y-68157377D03*
%TD*%
D41*
%TO.C,U3*%
X164795000Y-136375000D03*
X164795000Y-134675000D03*
X164795000Y-132975000D03*
D42*
X155645000Y-132975000D03*
D41*
X164795000Y-131275000D03*
X164795000Y-129575000D03*
%TD*%
D31*
%TO.C,D3*%
X185150000Y-117600000D03*
D32*
X174990000Y-117600000D03*
%TD*%
D43*
%TO.C,U5*%
X109070000Y-106075000D03*
X107800000Y-106075000D03*
X106530000Y-106075000D03*
X105260000Y-106075000D03*
X105260000Y-111025000D03*
X106530000Y-111025000D03*
X107800000Y-111025000D03*
X109070000Y-111025000D03*
%TD*%
D31*
%TO.C,D6*%
X147248400Y-69379000D03*
D32*
X157408400Y-69379000D03*
%TD*%
D44*
%TO.C,J7*%
X190310000Y-130530000D03*
D45*
X190310000Y-125450000D03*
%TD*%
D27*
%TO.C,J5*%
X113485000Y-60935331D03*
D28*
X116255000Y-60935331D03*
X119025000Y-60935331D03*
X121795000Y-60935331D03*
X124565000Y-60935331D03*
X114870000Y-58395331D03*
X117640000Y-58395331D03*
X120410000Y-58395331D03*
X123180000Y-58395331D03*
%TD*%
D46*
%TO.C,L1*%
X171150000Y-126975000D03*
X171150000Y-123650000D03*
%TD*%
D47*
%TO.C,R4*%
X179822600Y-95820000D03*
X182922600Y-95820000D03*
%TD*%
D20*
%TO.C,R11*%
X105194330Y-66439377D03*
X105194330Y-68439377D03*
%TD*%
D48*
%TO.C,U1*%
X103015000Y-70807377D03*
X103015000Y-70007377D03*
X103015000Y-69207377D03*
X103015000Y-68407377D03*
X100165000Y-68407377D03*
X100165000Y-69207377D03*
X100165000Y-70007377D03*
X100165000Y-70807377D03*
%TD*%
D16*
%TO.C,R12*%
X166803750Y-120571250D03*
X166803750Y-117471250D03*
%TD*%
D23*
%TO.C,R22*%
X177044000Y-113971000D03*
X179044000Y-113971000D03*
%TD*%
D26*
%TO.C,C8*%
X186157400Y-99466400D03*
X183032400Y-99466400D03*
%TD*%
D17*
%TO.C,D9*%
X145330000Y-79995800D03*
D18*
X160570000Y-79995800D03*
%TD*%
D14*
%TO.C,R24*%
X155158400Y-65676200D03*
X153158400Y-65676200D03*
%TD*%
D49*
%TO.C,U7*%
X130088800Y-115494800D03*
D28*
X130088800Y-112954800D03*
X130088800Y-110414800D03*
X130088800Y-107874800D03*
X130088800Y-105334800D03*
X130088800Y-102794800D03*
X130088800Y-100254800D03*
X130088800Y-97714800D03*
X130088800Y-95174800D03*
X130088800Y-92634800D03*
X130088800Y-90094800D03*
X130088800Y-87554800D03*
X130088800Y-85014800D03*
X130088800Y-82474800D03*
X130088800Y-79934800D03*
X130088800Y-77394800D03*
X130088800Y-74854800D03*
X130088800Y-72314800D03*
X130088800Y-69774800D03*
X130088800Y-67234800D03*
X114848800Y-67234800D03*
X114848800Y-69774800D03*
X114848800Y-72314800D03*
X114848800Y-74854800D03*
X114848800Y-77394800D03*
X114848800Y-79934800D03*
X114848800Y-82474800D03*
X114848800Y-85014800D03*
X114848800Y-87554800D03*
X114848800Y-90094800D03*
X114848800Y-92634800D03*
X114848800Y-95174800D03*
X114848800Y-97714800D03*
X114848800Y-100254800D03*
X114848800Y-102794800D03*
X114848800Y-105334800D03*
X114848800Y-107874800D03*
X114848800Y-110414800D03*
X114848800Y-112954800D03*
X114848800Y-115494800D03*
%TD*%
D50*
%TO.C,C5*%
X143256000Y-132080000D03*
X141181000Y-132080000D03*
%TD*%
D47*
%TO.C,R17*%
X161025000Y-118850000D03*
X164125000Y-118850000D03*
%TD*%
D51*
%TO.C,J9*%
X182925000Y-53825000D03*
D45*
X177845000Y-53825000D03*
%TD*%
D52*
%TO.C,D4*%
X96330000Y-54340000D03*
X98380000Y-54340000D03*
%TD*%
D51*
%TO.C,J8*%
X161425000Y-53850000D03*
D45*
X156345000Y-53850000D03*
%TD*%
D27*
%TO.C,C2*%
X155390000Y-121840000D03*
D28*
X155390000Y-124340000D03*
%TD*%
D14*
%TO.C,R6*%
X108050000Y-115230000D03*
X106050000Y-115230000D03*
%TD*%
D11*
%TO.C,SW3*%
X100825000Y-97900000D03*
X95575000Y-97900000D03*
X100825000Y-94700000D03*
X95575000Y-94700000D03*
%TD*%
D26*
%TO.C,C22*%
X185260000Y-114750000D03*
X182135000Y-114750000D03*
%TD*%
D10*
%TO.C,C18*%
X166440000Y-125705000D03*
X166440000Y-123630000D03*
%TD*%
D25*
%TO.C,C21*%
X141250000Y-58425000D03*
X141250000Y-55300000D03*
%TD*%
D17*
%TO.C,D14*%
X160578800Y-85837800D03*
D18*
X145338800Y-85837800D03*
%TD*%
D11*
%TO.C,SW4*%
X106225000Y-80250000D03*
X100975000Y-80250000D03*
X106225000Y-77050000D03*
X100975000Y-77050000D03*
%TD*%
D15*
%TO.C,R7*%
X111060000Y-111000000D03*
X111060000Y-114100000D03*
%TD*%
D47*
%TO.C,R1*%
X160600000Y-123950000D03*
X163700000Y-123950000D03*
%TD*%
D53*
%TO.C,Y1*%
X134569600Y-88533000D03*
X134569600Y-79033000D03*
%TD*%
D17*
%TO.C,D13*%
X160570000Y-91679800D03*
D18*
X145330000Y-91679800D03*
%TD*%
D27*
%TO.C,J2*%
X98485331Y-115765000D03*
D28*
X98485331Y-112995000D03*
X98485331Y-110225000D03*
X98485331Y-107455000D03*
X98485331Y-104685000D03*
X95945331Y-114380000D03*
X95945331Y-111610000D03*
X95945331Y-108840000D03*
X95945331Y-106070000D03*
%TD*%
D33*
%TO.C,JP1*%
X129320800Y-119667000D03*
D34*
X126780800Y-119667000D03*
X124240800Y-119667000D03*
%TD*%
D54*
%TO.C,SW9*%
X138665000Y-61000000D03*
D55*
X138665000Y-66080000D03*
X141205000Y-61000000D03*
X141205000Y-66080000D03*
X148825000Y-61000000D03*
X148825000Y-66080000D03*
%TD*%
D15*
%TO.C,R14*%
X173228750Y-106796250D03*
X173228750Y-109896250D03*
%TD*%
D56*
%TO.C,Q2*%
X134260000Y-66350000D03*
X134260000Y-67350000D03*
X135550000Y-66850000D03*
%TD*%
D13*
%TO.C,REF\u002A\u002A*%
X189425000Y-52500000D03*
%TD*%
D57*
%TO.C,R9*%
X135690400Y-119151400D03*
X132715400Y-119151400D03*
%TD*%
D35*
%TO.C,R10*%
X105194330Y-72199377D03*
X105194330Y-70199377D03*
%TD*%
D17*
%TO.C,D12*%
X174650400Y-91719400D03*
D18*
X189890400Y-91719400D03*
%TD*%
D19*
%TO.C,Q1*%
X157908400Y-65234000D03*
X156908400Y-65234000D03*
X157408400Y-66524000D03*
%TD*%
D16*
%TO.C,R2*%
X168640000Y-126810000D03*
X168640000Y-123710000D03*
%TD*%
%TO.C,R3*%
X98467330Y-73982377D03*
X98467330Y-70882377D03*
%TD*%
D25*
%TO.C,C20*%
X100790000Y-66260000D03*
X100790000Y-63135000D03*
%TD*%
D58*
%TO.C,U8*%
X108296000Y-69227600D03*
D59*
X108206000Y-68827600D03*
D60*
X108296000Y-68427600D03*
D61*
X107696000Y-68427600D03*
D62*
X107786000Y-68827600D03*
D63*
X107696000Y-69227600D03*
%TD*%
D44*
%TO.C,J10*%
X189860000Y-108720000D03*
D45*
X189860000Y-103640000D03*
%TD*%
D22*
%TO.C,C3*%
X90967330Y-68319877D03*
X90967330Y-71444877D03*
%TD*%
D64*
%TO.C,C12*%
X138249600Y-85043000D03*
X138249600Y-87118000D03*
%TD*%
D27*
%TO.C,C6*%
X167690800Y-79516600D03*
D28*
X167690800Y-82016600D03*
%TD*%
D65*
%TO.C,U4*%
X175800000Y-95810000D03*
D66*
X174530000Y-100890000D03*
X173260000Y-95810000D03*
X171990000Y-100890000D03*
X170720000Y-95810000D03*
X169450000Y-100890000D03*
X168180000Y-95810000D03*
X166910000Y-100890000D03*
X165640000Y-95810000D03*
X164370000Y-100890000D03*
X163100000Y-95810000D03*
X161830000Y-100890000D03*
X160560000Y-95810000D03*
X159290000Y-100890000D03*
X158020000Y-95810000D03*
%TD*%
D25*
%TO.C,C19*%
X97942330Y-68169877D03*
X97942330Y-65044877D03*
%TD*%
D51*
%TO.C,J6*%
X150600000Y-53850000D03*
D45*
X145520000Y-53850000D03*
%TD*%
D51*
%TO.C,J4*%
X172225000Y-53825000D03*
D45*
X167145000Y-53825000D03*
%TD*%
D67*
%TO.C,SW1*%
X160327400Y-69720400D03*
X165407400Y-69720400D03*
X167947400Y-69720400D03*
X170487400Y-69720400D03*
X170487400Y-61720400D03*
X167947400Y-61720400D03*
X165407400Y-61720400D03*
X160327400Y-61720400D03*
%TD*%
D15*
%TO.C,R18*%
X160985200Y-110413200D03*
X160985200Y-113513200D03*
%TD*%
D52*
%TO.C,D2*%
X106183600Y-122671600D03*
X108233600Y-122671600D03*
%TD*%
D15*
%TO.C,R15*%
X170896250Y-114413750D03*
X170896250Y-117513750D03*
%TD*%
D54*
%TO.C,SW8*%
X183014700Y-122091400D03*
D55*
X177934700Y-122091400D03*
X183014700Y-124631400D03*
X177934700Y-124631400D03*
X183014700Y-132251400D03*
X177934700Y-132251400D03*
%TD*%
M02*
