M48
; DRILL file {KiCad 9.0.0} date 2025-04-23T13:11:16+0200
; FORMAT={-:-/ absolute / inch / decimal}
; #@! TF.CreationDate,2025-04-23T13:11:16+02:00
; #@! TF.GenerationSoftware,Kicad,Pcbnew,9.0.0
; #@! TF.FileFunction,Plated,1,2,PTH
FMAT,2
INCH
; #@! TA.AperFunction,Plated,PTH,ViaDrill
T1C0.0118
; #@! TA.AperFunction,Plated,PTH,ComponentDrill
T2C0.0300
; #@! TA.AperFunction,Plated,PTH,ComponentDrill
T3C0.0315
; #@! TA.AperFunction,Plated,PTH,ComponentDrill
T4C0.0394
; #@! TA.AperFunction,Plated,PTH,ComponentDrill
T5C0.0433
; #@! TA.AperFunction,Plated,PTH,ComponentDrill
T6C0.0630
; #@! TA.AperFunction,Plated,PTH,ComponentDrill
T7C0.1260
%
G90
G05
T1
X3.5366Y-2.8126
X3.6264Y-2.813
X3.7028Y-2.721
X3.7606Y-2.1394
X3.796Y-2.5918
X3.8244Y-2.1394
X3.8861Y-2.5922
X3.8893Y-2.5135
X3.9299Y-2.7055
X3.972Y-2.7051
X3.9783Y-2.5137
X4.1531Y-4.2689
X4.1803Y-4.7929
X4.1803Y-4.8665
X4.2114Y-2.7661
X4.2114Y-2.8811
X4.2272Y-4.2689
X4.244Y-4.1276
X4.2441Y-4.224
X4.2638Y-2.7465
X4.2642Y-2.8386
X4.2949Y-2.8748
X4.3012Y-2.776
X4.3724Y-4.4575
X4.3724Y-4.5276
X5.0346Y-3.6024
X5.036Y-3.312
X5.0362Y-3.5228
X5.038Y-3.376
X5.04Y-3.24
X5.2Y-3.41
X5.2Y-3.464
X5.206Y-3.03
X5.21Y-3.096
X5.21Y-3.18
X5.24Y-2.956
X5.292Y-3.628
X5.318Y-2.952
X5.322Y-4.788
X5.3433Y-2.7156
X5.3516Y-4.9547
X5.3516Y-5.035
X5.3807Y-4.7882
X5.394Y-2.958
X5.3941Y-2.1764
X5.4087Y-2.7154
X5.412Y-3.624
X5.4378Y-2.1402
X5.458Y-2.96
X5.476Y-3.624
X5.514Y-3.288
X5.516Y-2.982
X5.516Y-3.358
X5.518Y-3.05
X5.518Y-3.454
X5.52Y-3.094
X5.52Y-3.138
X5.5205Y-2.2138
X5.522Y-3.496
X5.522Y-3.546
X5.522Y-3.6
X5.526Y-5.2
X5.55Y-4.9228
X5.55Y-5.1228
X5.5906Y-5.2
X5.5965Y-2.2138
X5.705Y-5.3
X5.8Y-5.3
X5.8996Y-3.7736
X5.936Y-3.7272
X6.0098Y-5.3539
X6.0117Y-5.2476
X6.0186Y-5.1463
X6.0299Y-2.5488
X6.03Y-2.6224
X6.0364Y-3.9173
X6.0571Y-3.938
X6.0797Y-3.9596
X6.0976Y-2.376
X6.0976Y-2.4657
X6.1024Y-3.9803
X6.1258Y-5.1492
X6.1278Y-5.2417
X6.1278Y-5.35
X6.152Y-4.586
X6.1565Y-4.6415
X6.2228Y-3.9263
X6.2228Y-4.1811
X6.2341Y-5.2437
X6.2371Y-5.1463
X6.2378Y-5.3539
X6.246Y-4.727
X6.285Y-4.88
X6.3047Y-4.6791
X6.36Y-4.88
X6.3744Y-4.6791
X6.388Y-5.1012
X6.388Y-5.236
X6.3882Y-4.2091
X6.4705Y-3.8677
X6.4715Y-3.8356
X6.4715Y-3.9006
X6.476Y-4.2091
X6.5236Y-4.7469
X6.58Y-4.4055
X6.5866Y-4.2114
X6.587Y-5.236
X6.588Y-5.1012
X6.6106Y-4.7469
X6.6736Y-4.2114
X6.676Y-4.4055
X6.6827Y-4.0591
X6.7Y-5.0752
X6.77Y-5.0752
X6.922Y-3.934
X6.922Y-4.098
X7.0492Y-4.524
X7.081Y-4.487
X7.2008Y-3.7244
X7.2008Y-3.8189
X7.2087Y-3.8661
X7.2087Y-3.9646
X7.2094Y-4.5634
X7.2098Y-4.4874
X7.4386Y-4.734
X7.4388Y-4.824
T2
X5.4593Y-2.4016
X5.4593Y-2.6016
X5.5593Y-2.4016
X5.5593Y-2.6016
X5.8593Y-2.4016
X5.8593Y-2.6016
X7.0053Y-4.8067
X7.0053Y-4.9067
X7.0053Y-5.2067
X7.2053Y-4.8067
X7.2053Y-4.9067
X7.2053Y-5.2067
T3
X4.5216Y-2.647
X4.5216Y-2.747
X4.5216Y-2.847
X4.5216Y-2.947
X4.5216Y-3.047
X4.5216Y-3.147
X4.5216Y-3.247
X4.5216Y-3.347
X4.5216Y-3.447
X4.5216Y-3.547
X4.5216Y-3.647
X4.5216Y-3.747
X4.5216Y-3.847
X4.5216Y-3.947
X4.5216Y-4.047
X4.5216Y-4.147
X4.5216Y-4.247
X4.5216Y-4.347
X4.5216Y-4.447
X4.5216Y-4.547
X5.1216Y-2.647
X5.1216Y-2.747
X5.1216Y-2.847
X5.1216Y-2.947
X5.1216Y-3.047
X5.1216Y-3.147
X5.1216Y-3.247
X5.1216Y-3.347
X5.1216Y-3.447
X5.1216Y-3.547
X5.1216Y-3.647
X5.1216Y-3.747
X5.1216Y-3.847
X5.1216Y-3.947
X5.1216Y-4.047
X5.1216Y-4.147
X5.1216Y-4.247
X5.1216Y-4.347
X5.1216Y-4.447
X5.1216Y-4.547
X6.1177Y-4.7969
X6.1177Y-4.8953
X6.602Y-3.1306
X6.602Y-3.229
X6.7299Y-5.3371
X6.7299Y-5.4355
T4
X3.6524Y-4.4293
X3.6524Y-4.5384
X3.6524Y-4.6474
X3.6524Y-4.7565
X3.7642Y-4.3748
X3.7642Y-4.4839
X3.7642Y-4.5929
X3.7642Y-4.702
X3.7642Y-4.811
X4.3965Y-2.2906
X4.451Y-2.1787
X4.5055Y-2.2906
X4.56Y-2.1787
X4.6146Y-2.2906
X4.6691Y-2.1787
X4.6914Y-4.8806
X4.7236Y-2.2906
X4.7781Y-2.1787
X4.7914Y-4.8806
X4.8327Y-2.2906
X4.8914Y-4.7113
X4.8914Y-4.8806
X4.9914Y-4.7113
X4.9914Y-4.8806
X5.0914Y-4.7113
X5.0914Y-4.8806
X6.2213Y-3.772
X6.2713Y-3.972
X6.3213Y-3.772
X6.3713Y-3.972
X6.4213Y-3.772
X6.4713Y-3.972
X6.5213Y-3.772
X6.5713Y-3.972
X6.6213Y-3.772
X6.6713Y-3.972
X6.7213Y-3.772
X6.7713Y-3.972
X6.8213Y-3.772
X6.8713Y-3.972
X6.9213Y-3.772
T5
X5.314Y-2.124
X5.314Y-2.524
X5.7291Y-2.1201
X5.7972Y-2.7315
X5.9291Y-2.1201
X6.1553Y-2.1201
X6.1972Y-2.7315
X6.3553Y-2.1201
X6.5805Y-2.1191
X6.7805Y-2.1191
X6.8894Y-4.6299
X7.0018Y-2.1191
X7.2018Y-2.1191
X7.2894Y-4.6299
X7.4748Y-4.0803
X7.4748Y-4.2803
X7.4925Y-4.939
X7.4925Y-5.139
T6
X5.7217Y-3.1494
X5.7217Y-3.6094
X5.722Y-2.92
X5.722Y-3.3794
X6.3217Y-3.1494
X6.3217Y-3.6094
X6.322Y-2.92
X6.322Y-3.3794
X6.8747Y-2.9284
X6.8747Y-3.3824
X6.876Y-3.611
X6.878Y-3.155
X7.4747Y-2.9284
X7.4747Y-3.3824
X7.476Y-3.611
X7.478Y-3.155
T7
X3.7083Y-4.1008
X3.7083Y-5.085
X4.1224Y-2.2346
X5.1067Y-2.2346
M30
